<svg width="18" height="17" viewBox="0 0 18 17" fill="none" xmlns="http://www.w3.org/2000/svg">
<path d="M16.0714 0.928711H14.1429V3.50015C14.1429 3.8552 13.855 4.14302 13.5 4.14302C13.1449 4.14302 12.8571 3.8552 12.8571 3.50015V0.928711H5.14284V3.50015C5.14284 3.8552 4.85502 4.14302 4.49997 4.14302C4.14492 4.14302 3.8571 3.8552 3.8571 3.50015V0.928711H1.92857C0.863449 0.928711 0 1.79216 0 2.85728V15.0716C0 16.1367 0.863449 17.0001 1.92857 17.0001H16.0714C17.1365 17.0001 18 16.1367 18 15.0716V2.85728C18 1.79216 17.1365 0.928711 16.0714 0.928711ZM16.7143 15.0716C16.7143 15.4266 16.4264 15.7144 16.0714 15.7144H1.92857C1.57352 15.7144 1.2857 15.4266 1.2857 15.0716V6.71442H16.7143V15.0716Z" fill="white"/>
</svg>
