<svg width="18" height="18" viewBox="0 0 18 18" fill="none" xmlns="http://www.w3.org/2000/svg">
<g clip-path="url(#clip0)">
<path d="M4.50002 0C4.14497 0 3.85715 0.287816 3.85715 0.642869V1.92857H5.14286V0.642869C5.14286 0.287816 4.85504 0 4.50002 0Z" fill="#949494"/>
<path d="M13.5 0C13.1449 0 12.8571 0.287816 12.8571 0.642869V1.92857H14.1428V0.642869C14.1429 0.287816 13.855 0 13.5 0Z" fill="#949494"/>
<path d="M16.0714 1.92871H14.1429V4.50015C14.1429 4.8552 13.855 5.14302 13.5 5.14302C13.1449 5.14302 12.8571 4.8552 12.8571 4.50015V1.92871H5.14284V4.50015C5.14284 4.8552 4.85502 5.14302 4.49997 5.14302C4.14492 5.14302 3.8571 4.8552 3.8571 4.50015V1.92871H1.92857C0.863449 1.92871 0 2.79216 0 3.85728V16.0716C0 17.1367 0.863449 18.0001 1.92857 18.0001H16.0714C17.1365 18.0001 18 17.1367 18 16.0716V3.85728C18 2.79216 17.1365 1.92871 16.0714 1.92871ZM16.7143 16.0716C16.7143 16.4266 16.4264 16.7144 16.0714 16.7144H1.92857C1.57352 16.7144 1.2857 16.4266 1.2857 16.0716V7.71442H16.7143V16.0716Z" fill="#949494"/>
<path d="M5.14284 9H3.85714C3.50208 9 3.21426 9.28781 3.21426 9.64286C3.21426 9.99791 3.50208 10.2857 3.85714 10.2857H5.14284C5.49789 10.2857 5.78571 9.99791 5.78571 9.64286C5.78571 9.28781 5.49789 9 5.14284 9Z" fill="#949494"/>
<path d="M9.64285 9H8.35715C8.0021 9 7.71428 9.28781 7.71428 9.64286C7.71428 9.99791 8.0021 10.2857 8.35715 10.2857H9.64285C9.9979 10.2857 10.2857 9.99791 10.2857 9.64286C10.2857 9.28781 9.9979 9 9.64285 9Z" fill="#949494"/>
<path d="M14.1429 9H12.8572C12.5021 9 12.2143 9.28781 12.2143 9.64286C12.2143 9.99791 12.5021 10.2857 12.8572 10.2857H14.1429C14.4979 10.2857 14.7857 9.99791 14.7857 9.64286C14.7857 9.28781 14.4979 9 14.1429 9Z" fill="#949494"/>
<path d="M5.14284 11.5715H3.85714C3.50208 11.5715 3.21426 11.8593 3.21426 12.2144C3.21426 12.5695 3.50208 12.8573 3.85714 12.8573H5.14284C5.49789 12.8573 5.78571 12.5695 5.78571 12.2144C5.78571 11.8593 5.49789 11.5715 5.14284 11.5715Z" fill="#949494"/>
<path d="M9.64285 11.5715H8.35715C8.0021 11.5715 7.71428 11.8593 7.71428 12.2144C7.71428 12.5695 8.0021 12.8573 8.35715 12.8573H9.64285C9.9979 12.8573 10.2857 12.5695 10.2857 12.2144C10.2857 11.8593 9.9979 11.5715 9.64285 11.5715Z" fill="#949494"/>
<path d="M14.1429 11.5715H12.8572C12.5021 11.5715 12.2143 11.8593 12.2143 12.2144C12.2143 12.5695 12.5021 12.8573 12.8572 12.8573H14.1429C14.4979 12.8573 14.7857 12.5695 14.7857 12.2144C14.7857 11.8593 14.4979 11.5715 14.1429 11.5715Z" fill="#949494"/>
<path d="M5.14284 14.1428H3.85714C3.50208 14.1428 3.21426 14.4306 3.21426 14.7857C3.21426 15.1407 3.50208 15.4285 3.85714 15.4285H5.14284C5.49789 15.4285 5.78571 15.1407 5.78571 14.7857C5.78571 14.4306 5.49789 14.1428 5.14284 14.1428Z" fill="#949494"/>
<path d="M9.64285 14.1428H8.35715C8.0021 14.1428 7.71428 14.4306 7.71428 14.7857C7.71428 15.1407 8.0021 15.4286 8.35715 15.4286H9.64285C9.9979 15.4286 10.2857 15.1407 10.2857 14.7857C10.2857 14.4306 9.9979 14.1428 9.64285 14.1428Z" fill="#949494"/>
<path d="M14.1429 14.1428H12.8572C12.5021 14.1428 12.2143 14.4306 12.2143 14.7857C12.2143 15.1407 12.5021 15.4286 12.8572 15.4286H14.1429C14.4979 15.4286 14.7857 15.1407 14.7857 14.7857C14.7857 14.4306 14.4979 14.1428 14.1429 14.1428Z" fill="#949494"/>
</g>
<defs>
<clipPath id="clip0">
<rect width="18" height="18" fill="white"/>
</clipPath>
</defs>
</svg>
