<svg width="16" height="16" viewBox="0 0 16 16" fill="none" xmlns="http://www.w3.org/2000/svg">
<path d="M6.66785 0.96582H9.34192V1.41577H10.3076V0.902832C10.3077 0.405029 9.90295 0 9.4054 0H6.60437C6.10681 0 5.70203 0.405029 5.70203 0.902832V1.41577H6.66785V0.96582Z" fill="white"/>
<path d="M12.5378 5.24219H3.47192C3.22351 5.24219 3.02795 5.4541 3.04797 5.70178L3.80591 15.0739C3.84814 15.597 4.28454 16 4.80884 16H11.2008C11.7251 16 12.1615 15.597 12.2037 15.0737L12.9617 5.70178C12.9818 5.4541 12.7862 5.24219 12.5378 5.24219ZM5.66711 15.0004C5.65698 15.001 5.64685 15.0013 5.63684 15.0013C5.38366 15.0013 5.17114 14.8042 5.15539 14.5481L4.68042 6.85413C4.66406 6.58789 4.86657 6.35876 5.13269 6.34241C5.39795 6.32629 5.62805 6.52832 5.6444 6.79468L6.11926 14.4886C6.13574 14.7549 5.93322 14.9839 5.66711 15.0004ZM8.49316 14.5184C8.49316 14.785 8.27697 15.0012 8.01025 15.0012C7.74352 15.0012 7.52734 14.785 7.52734 14.5184V6.82434C7.52734 6.55762 7.74352 6.34143 8.01025 6.34143C8.27685 6.34143 8.49316 6.55762 8.49316 6.82434V14.5184ZM11.3293 6.85278L10.8758 14.5468C10.8608 14.8033 10.6479 15.0012 10.3943 15.0012C10.3848 15.0012 10.3751 15.001 10.3655 15.0005C10.0992 14.9847 9.89611 14.7562 9.91185 14.49L10.3652 6.7959C10.3808 6.52966 10.6086 6.32654 10.8756 6.34229C11.1418 6.35791 11.345 6.58655 11.3293 6.85278Z" fill="white"/>
<path d="M14.2078 3.75195L13.8906 2.80127C13.807 2.55066 13.5724 2.38159 13.3081 2.38159H2.70154C2.43738 2.38159 2.20264 2.55066 2.11915 2.80127L1.80201 3.75195C1.74085 3.9353 1.82044 4.12231 1.969 4.21558C2.02955 4.25354 2.1012 4.27637 2.17994 4.27637H13.8298C13.9086 4.27637 13.9804 4.25354 14.0408 4.21545C14.1893 4.12219 14.2689 3.93518 14.2078 3.75195Z" fill="white"/>
</svg>
