<svg width="15" height="15" viewBox="0 0 15 15" fill="none" xmlns="http://www.w3.org/2000/svg">
<path d="M13.8995 6.39954H9.39954V1.89954C9.39954 1.34735 8.95172 0.899536 8.39954 0.899536L7.39954 0.899536C6.84735 0.899536 6.39954 1.34735 6.39954 1.89954V6.39954H1.89954C1.34735 6.39954 0.899536 6.84735 0.899536 7.39954L0.899536 8.39954C0.899536 8.95172 1.34735 9.39954 1.89954 9.39954H6.39954V13.8995C6.39954 14.4517 6.84735 14.8995 7.39954 14.8995H8.39954C8.95172 14.8995 9.39954 14.4517 9.39954 13.8995V9.39954H13.8995C14.4517 9.39954 14.8995 8.95172 14.8995 8.39954V7.39954C14.8995 6.84735 14.4517 6.39954 13.8995 6.39954Z" fill="white"/>
</svg>
