<svg width="18" height="18" viewBox="0 0 18 18" fill="none" xmlns="http://www.w3.org/2000/svg">
<path d="M4.50005 0C4.145 0 3.85718 0.287816 3.85718 0.642869V1.92857H5.14289V0.642869C5.14289 0.287816 4.85507 0 4.50005 0Z" fill="white"/>
<path d="M13.5 0C13.145 0 12.8572 0.287816 12.8572 0.642869V1.92857H14.1429V0.642869C14.1429 0.287816 13.8551 0 13.5 0Z" fill="white"/>
<path d="M16.0714 1.92871H14.1429V4.50015C14.1429 4.8552 13.855 5.14302 13.5 5.14302C13.1449 5.14302 12.8571 4.8552 12.8571 4.50015V1.92871H5.14284V4.50015C5.14284 4.8552 4.85502 5.14302 4.49997 5.14302C4.14492 5.14302 3.8571 4.8552 3.8571 4.50015V1.92871H1.92857C0.863449 1.92871 0 2.79216 0 3.85728V16.0716C0 17.1367 0.863449 18.0001 1.92857 18.0001H16.0714C17.1365 18.0001 18 17.1367 18 16.0716V3.85728C18 2.79216 17.1365 1.92871 16.0714 1.92871ZM16.7143 16.0716C16.7143 16.4266 16.4264 16.7144 16.0714 16.7144H1.92857C1.57352 16.7144 1.2857 16.4266 1.2857 16.0716V7.71442H16.7143V16.0716Z" fill="white"/>
<path d="M5.14281 9H3.8571C3.50205 9 3.21423 9.28781 3.21423 9.64286C3.21423 9.99791 3.50205 10.2857 3.8571 10.2857H5.14281C5.49786 10.2857 5.78568 9.99791 5.78568 9.64286C5.78568 9.28781 5.49786 9 5.14281 9Z" fill="white"/>
<path d="M9.6428 9H8.3571C8.00205 9 7.71423 9.28781 7.71423 9.64286C7.71423 9.99791 8.00205 10.2857 8.3571 10.2857H9.6428C9.99786 10.2857 10.2857 9.99791 10.2857 9.64286C10.2857 9.28781 9.99786 9 9.6428 9Z" fill="white"/>
<path d="M14.1428 9H12.8571C12.5021 9 12.2142 9.28781 12.2142 9.64286C12.2142 9.99791 12.5021 10.2857 12.8571 10.2857H14.1428C14.4979 10.2857 14.7857 9.99791 14.7857 9.64286C14.7857 9.28781 14.4978 9 14.1428 9Z" fill="white"/>
<path d="M5.14281 11.5715H3.8571C3.50205 11.5715 3.21423 11.8593 3.21423 12.2144C3.21423 12.5695 3.50205 12.8573 3.8571 12.8573H5.14281C5.49786 12.8573 5.78568 12.5695 5.78568 12.2144C5.78568 11.8593 5.49786 11.5715 5.14281 11.5715Z" fill="white"/>
<path d="M9.6428 11.5715H8.3571C8.00205 11.5715 7.71423 11.8593 7.71423 12.2144C7.71423 12.5695 8.00205 12.8573 8.3571 12.8573H9.6428C9.99786 12.8573 10.2857 12.5695 10.2857 12.2144C10.2857 11.8593 9.99786 11.5715 9.6428 11.5715Z" fill="white"/>
<path d="M14.1428 11.5715H12.8571C12.5021 11.5715 12.2142 11.8593 12.2142 12.2144C12.2142 12.5695 12.5021 12.8573 12.8571 12.8573H14.1428C14.4979 12.8573 14.7857 12.5695 14.7857 12.2144C14.7856 11.8593 14.4978 11.5715 14.1428 11.5715Z" fill="white"/>
<path d="M5.14281 14.1428H3.8571C3.50205 14.1428 3.21423 14.4306 3.21423 14.7857C3.21423 15.1407 3.50205 15.4285 3.8571 15.4285H5.14281C5.49786 15.4285 5.78568 15.1407 5.78568 14.7857C5.78568 14.4306 5.49786 14.1428 5.14281 14.1428Z" fill="white"/>
<path d="M9.6428 14.1428H8.3571C8.00205 14.1428 7.71423 14.4306 7.71423 14.7857C7.71423 15.1407 8.00205 15.4286 8.3571 15.4286H9.6428C9.99786 15.4286 10.2857 15.1407 10.2857 14.7857C10.2857 14.4306 9.99786 14.1428 9.6428 14.1428Z" fill="white"/>
<path d="M14.1428 14.1428H12.8571C12.5021 14.1428 12.2142 14.4306 12.2142 14.7857C12.2142 15.1407 12.5021 15.4286 12.8571 15.4286H14.1428C14.4979 15.4286 14.7857 15.1407 14.7857 14.7857C14.7857 14.4306 14.4978 14.1428 14.1428 14.1428Z" fill="white"/>
</svg>
