<svg width="16" height="16" viewBox="0 0 16 16" fill="none" xmlns="http://www.w3.org/2000/svg">
<path d="M7.99998 0C3.58172 0 0 3.58172 0 7.99998C0 12.4183 3.58172 16 7.99998 16C12.4183 16 16 12.4183 16 7.99998C15.9953 3.58369 12.4163 0.00472098 7.99998 0ZM12.404 5.54685L6.68969 11.2611C6.46654 11.4842 6.10483 11.4842 5.8817 11.2611L3.59598 8.97542C3.36897 8.75618 3.36268 8.39444 3.58192 8.16743C3.80116 7.94042 4.1629 7.93412 4.38991 8.15337C4.39466 8.15799 4.39935 8.16264 4.40397 8.16743L6.2857 10.0492L11.596 4.73886C11.823 4.51962 12.1847 4.52591 12.404 4.75289C12.6179 4.97434 12.6179 5.3254 12.404 5.54685Z" fill="white"/>
</svg>
